<svg width="274" height="73" viewBox="0 0 274 73" fill="none" xmlns="http://www.w3.org/2000/svg">
<path d="M24.512 54V19.312H35.648V9.2H2.624V19.312H13.76V54H24.512ZM59.887 54V19.312H71.023V9.2H37.999V19.312H49.135V54H59.887ZM107.672 34.8C105.304 33.2 101.272 33.968 98.3915 33.968V32.24C101.272 32.24 105.112 32.624 107.736 31.408C111.256 29.68 113.88 27.056 113.88 21.744C113.88 11.248 105.24 9.2 94.8075 9.2H77.0795V54H87.4475V37.68C86.6795 37.68 90.0075 37.68 91.4155 37.68C91.9915 37.68 92.4395 37.68 92.8875 37.68C95.1275 37.808 99.2875 36.08 101.144 43.312C101.4 44.208 102.424 48.368 103.768 54H114.968C114.968 54 112.088 45.424 111.512 42.8C110.808 39.472 110.296 36.656 107.672 34.8ZM87.4475 15.408H93.7835C98.9675 15.408 103.064 17.84 103.064 21.872C103.064 25.776 98.6475 29.168 93.7835 29.168H87.4475V15.408ZM120.75 54H127.374V47.472H120.75V54ZM153.743 51.504C154.751 50.496 154.895 48.528 155.375 47.184L156.623 47.664C156.143 48.96 155.087 50.544 154.991 51.936C154.943 52.464 154.943 52.944 154.943 53.52C154.943 57.216 152.159 59.04 146.927 59.04C143.087 59.04 142.031 58.32 141.119 55.728H132.959C133.583 61.776 138.095 66 147.023 66C158.111 66 162.479 61.2 162.527 54.672V30H154.943L155.039 31.824C155.135 33.264 156.143 34.848 156.623 36.192L155.423 36.672C154.895 35.328 154.703 33.312 153.695 32.304C151.775 30.384 148.991 29.28 145.583 29.28C138.047 29.28 132.767 34.704 132.767 41.856C132.767 49.008 138.047 54.768 145.583 54.768C149.039 54.768 151.823 53.52 153.743 51.504ZM140.303 42.24C140.303 39.072 142.511 36.624 146.687 36.624C150.719 36.624 152.879 38.88 153.119 41.76V42.72C152.879 45.6 150.719 47.472 146.687 47.472C142.511 47.472 140.303 45.36 140.303 42.24ZM183.169 52.752C184.273 51.696 184.513 49.68 185.089 48.288L186.289 48.768C185.761 50.16 184.753 51.84 184.753 53.328L184.705 54H192.289V30H184.705V41.76C184.705 46.176 183.121 48.192 179.617 48.192C176.401 48.192 174.049 46.704 174.049 41.76V30H166.513V46.464C166.513 51.888 171.313 54.72 176.257 54.72C179.665 54.72 181.393 54.432 183.169 52.752ZM196.427 27.84H204.443V20.4H196.427V27.84ZM196.715 54H204.203V30H196.715V54ZM228.625 31.872C228.625 33.312 229.585 34.944 230.065 36.336L228.817 36.768C228.337 35.376 228.145 33.408 227.137 32.4C225.409 30.624 222.961 29.28 219.793 29.28C213.025 29.28 208.033 35.28 207.745 42.048C207.505 49.152 212.641 54.768 219.793 54.768C223.009 54.768 225.457 53.664 227.233 51.84C228.193 50.784 228.289 48.768 228.769 47.424L230.017 47.808C229.585 49.2 228.625 50.832 228.625 52.272V54L236.209 53.952V19.152L228.625 19.2V31.872ZM221.137 47.76C217.585 47.76 215.329 45.408 215.329 42.192C215.329 38.976 217.585 36.288 221.137 36.288C224.689 36.288 226.849 38.976 226.849 42.192C226.849 45.408 224.689 47.76 221.137 47.76ZM255.799 54.768C264.055 54.768 267.943 49.632 268.663 47.136H259.831C259.351 47.808 257.719 48.528 255.079 48.528C250.951 48.528 248.935 46.128 248.935 44.016L269.191 44.064C269.191 43.632 269.191 42.48 269.191 41.952C269.239 35.232 263.623 29.28 254.551 29.28C245.719 29.28 239.479 34.704 239.479 41.856C239.479 49.008 245.239 54.768 255.799 54.768ZM248.935 39.6C248.935 37.056 251.335 34.896 254.743 34.896C258.103 34.896 260.167 36.816 260.167 39.6H248.935Z" fill="#00C8F8"/>
<path d="M27.512 51V16.312H38.648V6.2H5.624V16.312H16.76V51H27.512ZM62.887 51V16.312H74.023V6.2H40.999V16.312H52.135V51H62.887ZM110.672 31.8C108.304 30.2 104.272 30.968 101.392 30.968V29.24C104.272 29.24 108.112 29.624 110.736 28.408C114.256 26.68 116.88 24.056 116.88 18.744C116.88 8.248 108.24 6.2 97.8075 6.2H80.0795V51H90.4475V34.68C89.6795 34.68 93.0075 34.68 94.4155 34.68C94.9915 34.68 95.4395 34.68 95.8875 34.68C98.1275 34.808 102.288 33.08 104.144 40.312C104.4 41.208 105.424 45.368 106.768 51H117.968C117.968 51 115.088 42.424 114.512 39.8C113.808 36.472 113.296 33.656 110.672 31.8ZM90.4475 12.408H96.7835C101.968 12.408 106.064 14.84 106.064 18.872C106.064 22.776 101.648 26.168 96.7835 26.168H90.4475V12.408ZM123.75 51H130.374V44.472H123.75V51ZM156.743 48.504C157.751 47.496 157.895 45.528 158.375 44.184L159.623 44.664C159.143 45.96 158.087 47.544 157.991 48.936C157.943 49.464 157.943 49.944 157.943 50.52C157.943 54.216 155.159 56.04 149.927 56.04C146.087 56.04 145.031 55.32 144.119 52.728H135.959C136.583 58.776 141.095 63 150.023 63C161.111 63 165.479 58.2 165.527 51.672V27H157.943L158.039 28.824C158.135 30.264 159.143 31.848 159.623 33.192L158.423 33.672C157.895 32.328 157.703 30.312 156.695 29.304C154.775 27.384 151.991 26.28 148.583 26.28C141.047 26.28 135.767 31.704 135.767 38.856C135.767 46.008 141.047 51.768 148.583 51.768C152.039 51.768 154.823 50.52 156.743 48.504ZM143.303 39.24C143.303 36.072 145.511 33.624 149.687 33.624C153.719 33.624 155.879 35.88 156.119 38.76V39.72C155.879 42.6 153.719 44.472 149.687 44.472C145.511 44.472 143.303 42.36 143.303 39.24ZM186.169 49.752C187.273 48.696 187.513 46.68 188.089 45.288L189.289 45.768C188.761 47.16 187.753 48.84 187.753 50.328L187.705 51H195.289V27H187.705V38.76C187.705 43.176 186.121 45.192 182.617 45.192C179.401 45.192 177.049 43.704 177.049 38.76V27H169.513V43.464C169.513 48.888 174.313 51.72 179.257 51.72C182.665 51.72 184.393 51.432 186.169 49.752ZM199.427 24.84H207.443V17.4H199.427V24.84ZM199.715 51H207.203V27H199.715V51ZM231.625 28.872C231.625 30.312 232.585 31.944 233.065 33.336L231.817 33.768C231.337 32.376 231.145 30.408 230.137 29.4C228.409 27.624 225.961 26.28 222.793 26.28C216.025 26.28 211.033 32.28 210.745 39.048C210.505 46.152 215.641 51.768 222.793 51.768C226.009 51.768 228.457 50.664 230.233 48.84C231.193 47.784 231.289 45.768 231.769 44.424L233.017 44.808C232.585 46.2 231.625 47.832 231.625 49.272V51L239.209 50.952V16.152L231.625 16.2V28.872ZM224.137 44.76C220.585 44.76 218.329 42.408 218.329 39.192C218.329 35.976 220.585 33.288 224.137 33.288C227.689 33.288 229.849 35.976 229.849 39.192C229.849 42.408 227.689 44.76 224.137 44.76ZM258.799 51.768C267.055 51.768 270.943 46.632 271.663 44.136H262.831C262.351 44.808 260.719 45.528 258.079 45.528C253.951 45.528 251.935 43.128 251.935 41.016L272.191 41.064C272.191 40.632 272.191 39.48 272.191 38.952C272.239 32.232 266.623 26.28 257.551 26.28C248.719 26.28 242.479 31.704 242.479 38.856C242.479 46.008 248.239 51.768 258.799 51.768ZM251.935 36.6C251.935 34.056 254.335 31.896 257.743 31.896C261.103 31.896 263.167 33.816 263.167 36.6H251.935Z" fill="white"/>
</svg>
