<?xml version="1.0" standalone="no"?>
<!DOCTYPE svg PUBLIC "-//W3C//DTD SVG 20010904//EN"
 "http://www.w3.org/TR/2001/REC-SVG-20010904/DTD/svg10.dtd">
<svg version="1.0" xmlns="http://www.w3.org/2000/svg"
 width="500.000000pt" height="500.000000pt" viewBox="0 0 500.000000 500.000000"
 preserveAspectRatio="xMidYMid meet">
<metadata>
Created by potrace 1.14, written by Peter Selinger 2001-2017
</metadata>
<g transform="translate(0.000000,500.000000) scale(0.100000,-0.100000)"
fill="#000000" stroke="none">
<path d="M827 4984 c-389 -71 -691 -352 -799 -744 l-23 -85 0 -1655 0 -1655
27 -99 c98 -354 358 -614 715 -714 l98 -27 1655 0 1655 0 99 27 c354 98 614
358 714 715 l27 98 0 1655 0 1655 -28 100 c-67 246 -217 449 -433 588 -88 57
-164 91 -279 125 l-90 27 -1630 2 c-1368 1 -1642 -1 -1708 -13z m983 -1764 l0
-50 35 0 35 0 0 50 0 50 525 0 525 0 0 -160 0 -160 -50 0 -50 0 0 -45 0 -45
-125 0 -125 0 -2 -507 -3 -508 -47 -3 -48 -3 0 -45 0 -44 -170 0 -170 0 0 555
0 555 -175 0 -175 0 0 45 0 45 -40 0 -40 0 0 -45 0 -45 -130 0 -130 0 0 -510
0 -510 -50 0 -50 0 0 -45 0 -45 -165 0 -165 0 -2 553 -3 552 -177 3 -178 2 0
155 0 155 45 0 45 0 0 50 0 50 530 0 530 0 0 -50z m2175 27 c149 -43 255 -125
289 -224 39 -115 27 -257 -29 -340 -14 -21 -65 -74 -114 -118 l-90 -80 27 -14
c37 -18 91 -70 108 -103 8 -15 25 -74 39 -130 13 -57 44 -167 69 -244 26 -78
46 -144 46 -148 0 -3 -28 -6 -61 -6 l-61 0 5 -27 c3 -16 9 -36 12 -45 7 -17
-5 -18 -168 -18 l-174 0 -43 178 c-49 205 -69 257 -114 301 -41 40 -77 48
-183 43 l-83 -4 -2 -212 -3 -211 -47 -3 -48 -3 0 -45 0 -44 -165 0 -165 0 0
710 0 710 45 0 45 0 0 51 0 51 403 -4 c339 -4 411 -7 462 -21z"/>
<path d="M3460 2811 l0 -171 133 0 c213 0 262 25 262 135 0 56 -4 68 -31 102
-17 21 -57 51 -88 67 -50 26 -70 30 -166 34 l-110 5 0 -172z"/>
</g>
</svg>
