<svg width="121" height="73" viewBox="0 0 121 73" fill="none" xmlns="http://www.w3.org/2000/svg">
<path d="M24.512 54V19.312H35.648V9.2H2.624V19.312H13.76V54H24.512ZM59.887 54V19.312H71.023V9.2H37.999V19.312H49.135V54H59.887ZM107.672 34.8C105.304 33.2 101.272 33.968 98.3915 33.968V32.24C101.272 32.24 105.112 32.624 107.736 31.408C111.256 29.68 113.88 27.056 113.88 21.744C113.88 11.248 105.24 9.2 94.8075 9.2H77.0795V54H87.4475V37.68C86.6795 37.68 90.0075 37.68 91.4155 37.68C91.9915 37.68 92.4395 37.68 92.8875 37.68C95.1275 37.808 99.2875 36.08 101.144 43.312C101.4 44.208 102.424 48.368 103.768 54H114.968C114.968 54 112.088 45.424 111.512 42.8C110.808 39.472 110.296 36.656 107.672 34.8ZM87.4475 15.408H93.7835C98.9675 15.408 103.064 17.84 103.064 21.872C103.064 25.776 98.6475 29.168 93.7835 29.168H87.4475V15.408Z" fill="#00C8F8"/>
<path d="M27.512 51V16.312H38.648V6.2H5.624V16.312H16.76V51H27.512ZM62.887 51V16.312H74.023V6.2H40.999V16.312H52.135V51H62.887ZM110.672 31.8C108.304 30.2 104.272 30.968 101.392 30.968V29.24C104.272 29.24 108.112 29.624 110.736 28.408C114.256 26.68 116.88 24.056 116.88 18.744C116.88 8.248 108.24 6.2 97.8075 6.2H80.0795V51H90.4475V34.68C89.6795 34.68 93.0075 34.68 94.4155 34.68C94.9915 34.68 95.4395 34.68 95.8875 34.68C98.1275 34.808 102.288 33.08 104.144 40.312C104.4 41.208 105.424 45.368 106.768 51H117.968C117.968 51 115.088 42.424 114.512 39.8C113.808 36.472 113.296 33.656 110.672 31.8ZM90.4475 12.408H96.7835C101.968 12.408 106.064 14.84 106.064 18.872C106.064 22.776 101.648 26.168 96.7835 26.168H90.4475V12.408Z" fill="white"/>
</svg>
